<svg width="90" height="133" viewBox="0 0 90 133" fill="none" xmlns="http://www.w3.org/2000/svg">
<path d="M20.1268 10.1906V14.4741H15.8432V18.7642H11.5597V10.1906H20.1268Z" fill="white"/>
<path d="M74.1568 10.1906V18.7642H69.8733V14.4741H65.5897V10.1906H74.1568Z" fill="white"/>
<path d="M51.4285 40.7164V36.4329H47.145V40.7164H38.5714V36.4329H34.2879V40.7164H29.9978V49.29H34.2879V53.5736H51.4285V49.29H55.7121V40.7164H51.4285ZM47.145 46.9037H45V49.29H40.7164V46.9037H38.5714V42.6202H47.145V46.9037Z" fill="white"/>
<path d="M60.0088 90.0065V103.124H55.7187V107.154H51.4352V111.437H34.2945V107.154H30.0044V103.124H25.7144V90.0065H30.0044V85.723H34.2945V81.4329H39.6408V75.4347H34.2945V71.1511H30.0109V65.4984H55.7187V71.1511H51.4352V75.4347H46.0759V81.4329H51.4352V85.723H55.7187V90.0065H60.0088Z" fill="white"/>
<path d="M25.7144 124.294H21.4243V128.578H25.7144V124.294Z" fill="#231F20"/>
<path d="M25.7144 120.011V124.295H30.0044H34.2945V120.011H30.0044H25.7144Z" fill="#231F20"/>
<path d="M25.7144 115.721H21.4243V120.011H25.7144V115.721Z" fill="#231F20"/>
<path d="M21.4243 111.437H17.1407V115.721H21.4243V111.437Z" fill="#231F20"/>
<path d="M17.1407 107.154H12.8571V111.437H17.1407V107.154Z" fill="#231F20"/>
<path d="M17.1407 98.5802V94.2901V90.0066H12.8637H8.57361V94.2901H12.8637V98.5802V102.864H17.1407V98.5802Z" fill="#231F20"/>
<path d="M8.56712 85.723H4.28357V90.0066H8.56712V85.723Z" fill="#231F20"/>
<path d="M8.56712 64.2922H4.28357V68.5758H8.56712V64.2922Z" fill="#231F20"/>
<path d="M12.8571 60.0022H8.56708V64.2923H12.8571V60.0022Z" fill="#231F20"/>
<path d="M12.8571 47.1451H8.56708V51.4352H12.8571V47.1451Z" fill="#231F20"/>
<path d="M8.57363 38.578H4.2901V42.8615V47.1451H8.57363V42.8615V38.578Z" fill="#231F20"/>
<path d="M12.8637 34.2879V30.0044V25.7208H8.57361V30.0044V34.2879V38.578H12.8637V34.2879Z" fill="#231F20"/>
<path d="M15.8432 18.7642H11.5532V23.0477H15.8432V18.7642Z" fill="#231F20"/>
<path d="M20.1268 14.474H15.8433V18.7641H20.1268V14.474Z" fill="#231F20"/>
<path d="M20.1268 10.1906V14.4741H24.4234H28.7069V10.1906H24.4234H20.1268Z" fill="#231F20"/>
<path d="M20.1268 10.1906V5.90051H15.8432H11.5597V10.1906H15.8432H20.1268Z" fill="#231F20"/>
<path d="M8.56712 21.4308H4.28357V25.7208H8.56712V21.4308Z" fill="#231F20"/>
<path d="M8.56712 4.29004H4.28357V8.57358H8.56712V4.29004Z" fill="#231F20"/>
<path d="M11.5597 10.1906H7.27618V14.4741V18.7642H11.5597V14.4741V10.1906Z" fill="#231F20"/>
<path d="M17.1407 4.29006H21.4242H24.4234V5.90046H28.7069V1.61692H25.7143V0H21.4242H17.1407H12.8637H8.57361V4.29006H12.8637H17.1407Z" fill="#231F20"/>
<path d="M52.726 10.1906H57.0226V5.90051H52.726H28.7069V10.1906H52.726Z" fill="#231F20"/>
<path d="M74.1568 18.7642H69.8732V23.0477H74.1568V18.7642Z" fill="#231F20"/>
<path d="M69.8733 14.474H65.5833V18.7641H69.8733V14.474Z" fill="#231F20"/>
<path d="M74.1568 10.1906V5.90051H69.8733H65.5897V10.1906H69.8733H74.1568Z" fill="#231F20"/>
<path d="M61.3062 14.4741H65.5897V10.1906H61.3062H57.0226V14.4741H61.3062Z" fill="#231F20"/>
<path d="M81.433 21.4308H77.1429V25.7208H81.433V21.4308Z" fill="#231F20"/>
<path d="M81.4395 17.1472V21.4308H85.723V17.1472V12.8572V8.57361H81.4395V12.8572V17.1472Z" fill="#231F20"/>
<path d="M81.433 4.29004H77.1429V8.57358H81.433V4.29004Z" fill="#231F20"/>
<path d="M74.1567 18.7642H78.4533V14.4741V10.1906H74.1567V14.4741V18.7642Z" fill="#231F20"/>
<path d="M61.3062 4.29006H64.2857H68.5758H72.8593H77.1494V0H72.8593H68.5758H64.2857H60.0087V1.61692H57.0226V5.90046H61.3062V4.29006Z" fill="#231F20"/>
<path d="M17.1407 61.2148V65.4984V69.7884H21.4242V65.4984H25.7143H25.7273V71.1576H30.0043V75.4412H34.2944V81.4329H39.6407V75.4346H34.2944V71.1511H30.0108V65.4984H34.2944H38.5779H42.855H47.145H51.4351H55.7186V71.1511H51.4351V75.4346H46.0758V81.4329H51.4351V75.4412H55.7186V71.1576H60.0087V65.4984H64.2857V69.7884H68.5758V65.4984V61.2148V60.0021H72.8593V55.7186V51.4351H68.5758V55.7186V56.9313H64.2857V61.2148H60.0087H55.7186H51.4351H47.145H42.855H38.5779H34.2944H30.0043H25.7143H21.4242V56.9313H17.1407V55.7186V51.4351H12.8636V55.7186V60.0021H17.1407V61.2148Z" fill="#231F20"/>
<path d="M34.2879 49.29H29.9978V53.5736H34.2879V49.29Z" fill="#231F20"/>
<path d="M25.7144 45.0065V49.29H30.0044V45.0065V40.7164H25.7144V45.0065Z" fill="#231F20"/>
<path d="M34.2879 36.4329H29.9978V40.7164H34.2879V36.4329Z" fill="#231F20"/>
<path d="M27.742 37.8478V33.5577V29.2742H23.4585H19.1749V33.5577V37.8478H23.4585H27.742Z" fill="#231F20"/>
<path d="M38.5715 32.1494H34.288V36.433H38.5715V32.1494Z" fill="#231F20"/>
<path d="M38.578 36.4329V40.7164H42.855H47.1451V36.4329H42.855H38.578Z" fill="#231F20"/>
<path d="M40.723 49.2901H45.0066V46.9038H47.1451V42.6202H42.855H38.578V46.9038H40.723V49.2901Z" fill="#231F20"/>
<path d="M8.5736 107.154H12.8637V102.864H8.5736H4.29007H0V107.154H4.29007H8.5736Z" fill="#231F20"/>
<path d="M30.0044 107.154V103.125H25.7143V99.18V94.8965V90.0066H30.0044V85.723H25.7143H21.4243H17.1407V90.0066H21.4243V94.8965V99.18V103.47H25.7143V107.415H30.0044V111.437H34.2945V107.154H30.0044Z" fill="#231F20"/>
<path d="M34.2879 81.433H29.9978V85.723H34.2879V81.433Z" fill="#231F20"/>
<path d="M8.56712 124.294H4.28357V128.578H8.56712V124.294Z" fill="#231F20"/>
<path d="M12.8637 128.578H8.57361V132.868H12.8637H17.1407H21.4242V128.578H17.1407H12.8637Z" fill="#231F20"/>
<path d="M64.2857 124.294H60.0022V128.578H64.2857V124.294Z" fill="#231F20"/>
<path d="M55.7187 120.011H51.4351V124.295H55.7187H60.0087V120.011H55.7187Z" fill="#231F20"/>
<path d="M64.2857 115.721H60.0022V120.011H64.2857V115.721Z" fill="#231F20"/>
<path d="M68.5758 111.437H64.2858V115.721H68.5758V111.437Z" fill="#231F20"/>
<path d="M85.723 107.154V111.437V115.721V120.011H90V115.721V111.437V107.154H85.723Z" fill="#231F20"/>
<path d="M72.8593 107.154H68.5758V111.437H72.8593V107.154Z" fill="#231F20"/>
<path d="M68.5758 90.0066V94.2901V98.5802V102.864H72.8593V98.5802V94.2901H77.1494V90.0066H72.8593H68.5758Z" fill="#231F20"/>
<path d="M81.433 85.723H77.1429V90.0066H81.433V85.723Z" fill="#231F20"/>
<path d="M81.433 64.2922H77.1429V68.5758H81.433V64.2922Z" fill="#231F20"/>
<path d="M77.1429 60.0022H72.8593V64.2923H77.1429V60.0022Z" fill="#231F20"/>
<path d="M77.1429 47.1451H72.8593V51.4352H77.1429V47.1451Z" fill="#231F20"/>
<path d="M77.1494 47.1451H81.4395V42.8615V38.578H77.1494V42.8615V47.1451Z" fill="#231F20"/>
<path d="M72.8593 30.0044V34.2879V38.578H77.1494V34.2879V30.0044V25.7208H72.8593V30.0044Z" fill="#231F20"/>
<path d="M42.8551 53.5736H38.578H34.2945V57.8637H38.578H42.8551H47.1451H51.4352V53.5736H47.1451H42.8551Z" fill="#231F20"/>
<path d="M55.7121 49.29H51.4286V53.5736H55.7121V49.29Z" fill="#231F20"/>
<path d="M55.7187 49.29H60.0087V45.0065V40.7164H55.7187V45.0065V49.29Z" fill="#231F20"/>
<path d="M55.7121 36.4329H51.4286V40.7164H55.7121V36.4329Z" fill="#231F20"/>
<path d="M66.4372 37.8478V33.5577V29.2742H62.1406H57.8571V33.5577V37.8478H62.1406H66.4372Z" fill="#231F20"/>
<path d="M51.4286 32.1494H47.1451V36.433H51.4286V32.1494Z" fill="#231F20"/>
<path d="M47.1451 32.1493V27.8593H42.855H38.578V32.1493H42.855H47.1451Z" fill="#231F20"/>
<path d="M81.4395 77.1494V81.433V85.723H85.723V81.433V77.1494V72.8659V68.5758H81.4395V72.8659V77.1494Z" fill="#231F20"/>
<path d="M77.1494 107.154H81.4394H85.723V102.864H81.4394H77.1494H72.8593V107.154H77.1494Z" fill="#231F20"/>
<path d="M51.4352 111.437H47.1451H42.8551H38.578H34.2945V115.721V120.011H38.578V115.721H42.8551H47.1451V120.011H51.4352V115.721V111.437Z" fill="#231F20"/>
<path d="M55.7187 107.154H51.4351V111.437H55.7187V107.415H60.0087V103.125H55.7187V107.154Z" fill="#231F20"/>
<path d="M64.2858 85.723H60.0087H55.7187V90.0066H60.0087V94.8965V98.841V99.18V103.125H64.2858V99.18V98.841V94.8965V90.0066H68.5758V85.723H64.2858Z" fill="#231F20"/>
<path d="M55.7121 81.433H51.4286V85.723H55.7121V81.433Z" fill="#231F20"/>
<path d="M81.433 124.294H77.1429V128.578H81.433V124.294Z" fill="#231F20"/>
<path d="M85.7165 120.011H81.4329V124.295H85.7165V120.011Z" fill="#231F20"/>
<path d="M68.5758 128.578H64.2858V132.868H68.5758H72.8594H77.1494V128.578H72.8594H68.5758Z" fill="#231F20"/>
<path d="M34.2944 111.437V120.011H25.7143V115.721H21.4242V111.437H17.1407V107.154H12.8636V102.864H17.1407V90.0066H21.4242V103.47H25.7143V107.415H30.0043V111.437H34.2944Z" fill="#71C5D1"/>
<path d="M25.7143 120.011V124.294H21.4242V128.578H8.5736V124.294H4.29007V120.011H0V107.154H12.8637V111.437H17.1407V115.721H21.4242V120.011H25.7143Z" fill="#71C5D1"/>
<path d="M77.1429 8.57358V4.29004H61.2997V5.90043H57.0161V10.1905H65.5832V5.90043H74.1894V10.1905H78.4795V18.7641H74.1894V23.0476H69.9059V18.7641H65.5832V14.474H57.0161V10.1905H28.7004V14.474H20.1268V18.7641H15.8433V23.0476H11.5532V18.7641H7.26965V10.1905H11.5532V5.90043H20.1268V10.1905H28.7004V5.90043H24.4169V4.29004H8.56712V8.57358H4.28357V21.4307H8.56712V25.7208H12.8572V38.5779H8.56712V47.145H12.8572V51.4351H17.1407V56.9313H21.4243V61.2149H64.2858V56.9313H68.5758V51.4351H72.8854V47.145H77.169V38.5779H72.8854V25.7208H77.169V21.4307H81.459V8.57358H77.1429ZM19.1684 37.8477V29.2741H27.742V37.8477H19.1684ZM60.0022 49.29H55.7122V53.5736H51.4286V57.8636H34.2879V53.5736H29.9979V49.29H25.7143V40.7164H29.9979V36.4329H34.2879V32.1494H38.5715V27.8593H47.1451V32.1494H51.4286V36.4329H55.7122V40.7164H60.0022V49.29ZM66.4308 37.8477H57.8898V29.2741H66.4308V37.8477Z" fill="#71C5D1"/>
<path d="M47.1451 32.1494H38.5715V36.433H47.1451V32.1494Z" fill="#71C5D1"/>
<path d="M72.8593 102.864V107.154H68.5758V111.437H64.2857V115.721H60.0087V120.011H51.4351V111.437H55.7187V107.415H60.0087V103.125H64.2857V90.0066H68.5758V102.864H72.8593Z" fill="#71C5D1"/>
<path d="M85.723 107.154V120.011H81.4395V124.294H77.1494V128.578H64.2857V124.294H60.0087V120.011H64.2857V115.721H68.5758V111.437H72.8593V107.154H85.723Z" fill="#71C5D1"/>
<path d="M34.2944 75.4412V81.433H30.0044V85.723H17.1407V90.0066H8.57363V85.723H4.2901V68.5758H8.57363V64.2923H12.8637V60.0022H17.1407V69.7885H21.4243V65.4984H25.7274V71.1577H30.0044V75.4412H34.2944Z" fill="#71C5D1"/>
<path d="M81.4395 68.5758V85.723H77.1494V90.0066H68.5758V85.723H55.7187V81.433H51.4351V75.4412H55.7187V71.1577H60.0087V65.4984H64.2857V69.7885H68.5758V60.0022H72.8593V64.2923H77.1494V68.5758H81.4395Z" fill="#71C5D1"/>
</svg>
